<?xml version="1.0" encoding="UTF-8"?>
<svg width="910px" height="1201px" viewBox="0 0 910 1201" version="1.1" xmlns="http://www.w3.org/2000/svg" xmlns:xlink="http://www.w3.org/1999/xlink">
    <!-- Generator: Sketch 50.2 (55047) - http://www.bohemiancoding.com/sketch -->
    <title>woman-reading-book</title>
    <desc>Created with Sketch.</desc>
    <defs></defs>
    <g id="Page-1" stroke="none" stroke-width="1" fill="none" fill-rule="evenodd">
        <g id="woman-reading-book" transform="translate(1.000000, 0.000000)">
            <path d="M241.860277,500.705197 C235.491774,489.764919 223.544834,485.438088 206.019458,487.724701 C179.731393,491.154622 124.656415,499.194113 118.141092,508.526637 C111.625769,517.859162 101.543153,557.330508 108.263443,596.817117 C112.743636,623.141523 109.368048,658.215716 98.1366793,702.039695 C137.314749,723.099433 161.268682,733.629303 169.998478,733.629303 C178.728274,733.629303 188.990139,724.937526 200.784071,707.553974 C186.299869,695.142959 176.038005,688.937452 169.998478,688.937452 C171.294581,680.597269 173.033143,672.592291 175.214163,664.922519 C182.401588,671.077509 188.515896,674.789119 193.557086,676.057347 C206.064662,672.923302 206.064662,672.923302 218.968288,619.642094 C229.434648,619.710589 237.626715,622.005189 228.297502,610.380526 C227.776842,598.250468 225.575369,591.826455 233.958493,579.466307 C234.162008,565.791792 241.02652,539.546552 244.872954,531.752773 C246.074289,521.85778 245.070064,511.508588 241.860277,500.705197 Z" id="face" stroke="#E2E2E0" fill="#E2E2E0"></path>
            <path d="M0.454665389,0.682209079 L0.454665389,559.28125 C34.869003,593.471354 73.2317708,603.029948 115.542969,587.957031 C102.174479,572.64974 108.433594,557.00651 134.320313,541.027344 C144.253906,542.889323 149.220703,550.11263 149.220703,562.697266 C149.220703,530.501953 235.519531,506.931641 241.181641,498.820312 C240.751953,499.285156 240.316406,471.355469 260.476562,465.548828 C280.636719,459.742187 318.021484,428.837891 318.021484,372.201172 C318.021484,315.564453 307.160156,318.789062 307.160156,274.158203 C306.931641,103.814453 499.949219,91.8574219 501.261921,0.682209079 C501.346422,0.730007193 334.41067,0.730007193 0.454665389,0.682209079 Z" id="hair" stroke="#F6F7F7" fill="#F6F7F7"></path>
            <path d="M98.2391891,702.396656 C90.4519569,705.83304 50.8977877,760.36082 47.609375,821.089844 C47.609375,865.141653 86.6132812,937.117966 86.6132812,998.253906 C86.2486979,1013.13411 81.610026,1031.45964 72.6972656,1053.23047 C86.4888811,1048.7419 99.6371767,1049.59948 112.142153,1055.80322 C142.062462,1031.98786 207.595163,1023.97779 245.062203,1007.23934 C243.575118,1002.71337 234.787208,1006.02275 231.118029,993.803805 C212.989001,911.908436 241.961563,897.079708 238.644042,810.860566 C236.021869,740.657444 212.810746,715.065052 202.155859,704.589844 C172.52914,760.36082 141.560807,719.552131 98.2391891,702.396656 Z" id="top" stroke="#F0F0EE" fill="#F0F0EE"></path>
            <path d="M101.925566,726.654199 C75.1915492,736.862056 67.6918993,748.563746 67.6918993,779.192397 C67.6918993,809.821049 102.743617,844.715254 120.654366,896.219455 C138.565116,947.723657 165.24324,1005.61984 184.215932,1005.61984 C196.864393,1005.61984 211.504631,1001.98349 228.136646,994.710793 C274.789279,959.88857 302.094068,937.78679 310.051014,928.405453 C327.405387,920.115698 353.844701,901.963598 361.661918,901.963598 C369.479134,901.963598 386.89448,890.302557 390.446143,887.396188 C379.526937,886.016679 333.472291,883.999174 339.200532,833.22613 C294.930118,867.934511 243.254742,921.609834 217.163412,921.609834 C205.742844,916.624558 192.602906,910.121927 172.823416,825.120848 C171.065888,791.191346 172.170235,710.939859 101.925566,726.654199 Z" id="rightArm" stroke="#DFE0DE" fill="#DFE0DE"></path>
            <g id="Book" transform="translate(318.000000, 685.000000)">
                <path d="M65.6974906,0.462983347 C52.1800405,-0.248090958 51.3480335,0.692395326 37.6809902,4.68305146 C22.2967798,3.35350221 13.1566308,2.49793124 8.60161917,8.64759862 C8.97517832,16.9422186 14.6394866,58.7788356 25.594544,134.15745 L84.0384763,93.1141437 C77.2030433,41.6322223 71.0893814,10.7485021 65.6974906,0.462983347 Z" id="colored" stroke="#FF4E20" fill="#FF4E20"></path>
                <path d="M0.897463688,47.6925639 C1.31922402,47.6363292 54.3505654,11.7887089 65.1857893,2.07817929 C71.9165487,5.79100917 79.6253904,46.2237668 88.3123144,123.376452 L28.8220147,163.228787 C13.9358832,108.517768 4.62769955,70.005694 0.897463688,47.6925639 Z" id="grey" stroke="#C4C4C4" fill="#C4C4C4"></path>
            </g>
            <path d="M231.193456,894.477752 C262.255225,885.978802 291.862255,863.384337 320.014546,826.694359 C320.182102,826.710636 321.344678,826.710636 323.502273,826.694359 C328.205947,815.8066 331.723145,808.166653 334.053869,803.77452 C333.430902,804.837667 341.538583,824.679185 341.538583,837.751299 C345.962941,838.041028 352.117775,836.327433 360.003087,832.610516 C356.164722,797.950326 359.25698,779.44171 369.27986,777.084667 C371.366235,776.507932 372.567085,809.589316 371.96666,811.750847 C377.111528,812.910852 392.711145,808.314944 398.803623,790.071005 C399.459597,745.042386 393.798446,763.996215 393.798446,748.003666 C393.798446,732.011117 395.3571,734.005182 398.803623,734.005182 C402.250145,734.005182 403.343981,738.504695 403.343981,743.254181 C403.343981,748.003666 411.719015,764.394134 413.523558,766.394734 C416.070776,761.055473 416.359619,741.600486 423.87607,740.70462 C425.729628,740.58862 419.54003,773.917224 418.373489,777.831833 C423.83499,770.043841 426.268785,757.007593 433.434676,757.007593 C433.293351,759.719718 423.478729,777.329698 424.599522,780.437205 C425.720316,783.544711 433.497577,768.288234 437.056832,771.024049 C440.616087,773.759864 437.056832,777.084667 433.434676,784.18929 C422.121149,797.002012 388.588226,862.118757 376.368961,863.76237 C372.847556,867.645392 366.923089,872.879302 358.595559,879.464101 C343.743137,872.563977 337.187203,857.522305 338.927755,834.339087 C314.577451,854.230723 254.360934,909.949361 226.128698,920.27259 C227.933513,913.346869 229.621766,904.74859 231.193456,894.477752 Z" id="fingers" stroke="#D8D8D8" fill="#D8D8D8"></path>
            <path d="M70.2449604,1058.90289 C43.8257324,1098.28982 14.9220218,1142.38074 70.2449604,1199.68128 C116.76277,1199.40224 395.908025,1199.40224 907.680726,1199.68128 C910.320089,1102.47798 905.845204,1053.87633 894.256072,1053.87633 C876.872374,1053.87633 855.944352,1106.56118 838.533773,1153.12123 C786.881921,1169.47429 646.006034,1129.34015 458.092866,1109.04867 C172.035895,1079.52811 78.9043815,1035.17806 70.2449604,1058.90289 Z" id="leftLeg" stroke="#E5E8E5" fill="#E5E8E5"></path>
            <path d="M39.9545645,1122.8599 C37.7027279,1170.69999 56.1731379,1185.31076 72.4319296,1198.76163 C83.4170556,1198.76163 179.726871,1199.18433 180.134473,1198.76163 C276.728603,1150.56898 418.956547,1044.96483 450.095328,1044.41885 C495.998361,1044.15215 509.766251,1084.01663 592.295596,1111.20016 C655.46636,1138.03396 722.730758,1170.88115 722.730758,1170.88115 C722.730758,1170.88115 709.461048,1198.76163 716.095903,1198.76163 C720.519139,1198.76163 778.359208,1198.76163 889.616108,1198.76163 C886.380452,1190.4754 882.159339,1184.94006 876.952768,1182.15562 C866.58911,1179.37286 804.142971,1161.45095 793.084879,1156.15212 C693.521796,1105.60192 495.45366,938.628512 464.691645,938.628512 C382.388104,949.241261 349.949099,972.188486 252.740469,1004.93681 C151.355772,1039.09199 94.0323205,1042.18962 39.9545645,1122.8599 Z" id="rightLeg" stroke="#DDDEDC" fill="#D8D8D8"></path>
        </g>
    </g>
</svg>